# Blender 3.6.5
# www.blender.org
mtllib wall_carpet_door_open.mtl
o door_open
v 0.100000 0.000000 -1.000000
v 0.100000 2.000000 -1.000000
v 0.100000 0.000000 1.000000
v 0.100000 2.000000 1.000000
v -0.100000 0.000000 -1.000000
v -0.100000 2.000000 -1.000000
v -0.100000 0.000000 1.000000
v -0.100000 2.000000 1.000000
v 0.100000 0.000000 0.695000
v -0.100000 2.000000 0.705000
v 0.100000 2.000000 0.705000
v -0.100000 0.000000 0.695000
v -0.100000 2.000000 -0.700000
v -0.100000 0.000000 -0.700000
v 0.100000 0.000000 -0.700000
v 0.100000 2.000000 -0.700000
vn -0.0000 -0.0000 1.0000
vn -0.0000 0.0050 -1.0000
vn 1.0000 -0.0000 -0.0000
vn -1.0000 -0.0000 -0.0000
vt 0.843750 1.000000
vt 0.844000 -0.000000
vt 0.156250 1.000000
vt 0.156250 -0.000000
vt 0.156250 -0.001953
vt 0.000000 1.000000
vt -0.000000 0.000000
vt 1.000000 1.000000
vt 1.000000 -0.000000
s 0
usemtl door
f 16/1/1 13/1/1 14/2/1 15/2/1
f 10/3/2 11/3/2 9/4/2 12/5/2
f 9/4/3 11/3/3 4/6/3 3/7/3
f 7/7/4 8/6/4 10/3/4 12/5/4
f 2/8/3 16/1/3 15/2/3 1/9/3
f 14/2/4 13/1/4 6/8/4 5/9/4
